PathFileType	4	(X/Y/Z)	C:\Users\WrightLab\Desktop\Jo\P3_36.trc
DataRate	CameraRate	NumFrames	NumMarkers	Units	OrigDataRate	OrigDataStartFrame	OrigNumFrames
100.00	100.00	       31	19	mm	100.00	512	       584
Frame#	Time	Headset_Front			Headset_Back			Headset_Left			Headset_Right			Left_Shoulder			Right_Shoulder			Sternum			C7			Left Elbow			Right Elbow			Left Wrist			Right Wrist			Left ASIS			Right ASIS			S2			Left Knee			Right Knee			Left Ankle			Right Ankle			
		X1	Y1	Z1	X2	Y2	Z2	X3	Y3	Z3	X4	Y4	Z4	X5	Y5	Z5	X6	Y6	Z6	X7	Y7	Z7	X8	Y8	Z8	X9	Y9	Z9	X10	Y10	Z10	X11	Y11	Z11	X12	Y12	Z12	X13	Y13	Z13	X14	Y14	Z14	X15	Y15	Z15	X16	Y16	Z16	X17	Y17	Z17	X18	Y18	Z18	X19	Y19	Z19	

512	5.110																-233.49876	1290.97717	-1380.07458										-187.01839	944.51880	-1319.24500													-404.64407	892.53418	-1425.27319										-211.88089	65.01331	-1576.30249	
513	5.120																												-185.35721	945.38190	-1322.43628													-401.02509	893.00165	-1430.66809										-210.79768	62.79044	-1579.69397	
514	5.130																												-183.41284	946.98706	-1335.20642													-397.64697	893.08295	-1434.56152										-210.74091	62.98252	-1579.37329	
515	5.140																												-181.13242	946.53943	-1341.76038													-394.38510	892.77740	-1443.11243										-210.71150	63.10416	-1579.21155	
516	5.150																												-178.66527	946.01184	-1346.71082													-392.65720	891.91449	-1448.26538										-210.62886	63.35069	-1578.73840	
517	5.160																												-175.47437	948.27740	-1337.12048													-391.23328	892.57642	-1452.30688										-210.58957	63.48118	-1578.51587	
518	5.170																												-172.12801	947.97516	-1347.87854													-389.13336	890.39728	-1461.15820										-209.78699	62.56569	-1581.11572	
519	5.180																												-169.66679	948.34473	-1353.53357													-388.46039	890.93323	-1465.35364										-209.31612	62.65990	-1582.90039	
520	5.190																												-167.28273	948.21075	-1359.11072													-387.91107	892.77386	-1468.59827										-209.31165	62.78172	-1582.89563	
521	5.200																												-164.96129	947.48853	-1365.03210													-387.40649	892.48120	-1474.39270										-209.32059	62.81010	-1582.95752	
522	5.210																												-162.33159	947.46936	-1369.70374													-386.59360	891.73834	-1484.23645										-209.33043	62.79513	-1583.01672	
523	5.220																												-159.94386	949.72662	-1369.48389													-387.67792	891.74060	-1488.44067										-209.32634	62.87048	-1583.00525	
524	5.230																												-157.68764	950.66937	-1371.41309													-386.95407	890.91913	-1498.38892										-209.30316	62.97575	-1582.87903	
525	5.240																												-155.70322	952.24323	-1373.34155													-387.17566	891.96637	-1500.61853										-209.27490	63.10185	-1582.72485	
526	5.250																												-154.02147	952.96112	-1377.04224													-385.90848	892.18939	-1508.82227										-209.82701	65.44725	-1580.34949	
527	5.260																												-152.25009	953.24261	-1382.15527													-385.63824	892.25708	-1511.86719										-209.81874	65.57069	-1580.32141	
528	5.270																												-150.82539	953.41077	-1387.41101													-385.20056	893.09149	-1516.19141										-209.28621	65.83561	-1581.74658	
529	5.280																												-150.27968	954.21985	-1389.22668													-384.99307	892.37872	-1520.98828										-209.26517	66.01823	-1581.64978	
530	5.290																												-149.28555	956.11469	-1392.50452													-385.57446	892.30542	-1528.57861										-209.19118	66.27388	-1581.23254	
531	5.300																												-149.10622	957.17511	-1393.17957													-385.95065	893.11639	-1536.60767										-209.12909	66.48873	-1580.88232	
532	5.310																												-148.19208	957.75195	-1396.36023													-386.55118	893.86017	-1540.80054										-209.05504	66.72076	-1580.45996	
533	5.320																												-147.47334	958.09222	-1400.73279													-386.85684	894.65247	-1543.44458										-209.04008	66.74961	-1580.37122	
534	5.330																												-147.69608	958.30322	-1403.81445													-385.82184	894.05115	-1551.96521										-209.06425	66.72780	-1580.51953	
535	5.340																												-148.50797	957.48981	-1408.76904													-386.54764	894.68262	-1556.40808										-209.09904	66.64643	-1580.72339	
536	5.350																												-149.30066	957.37952	-1413.93420													-386.91644	894.48578	-1567.80701										-209.14503	66.50308	-1580.98584	
537	5.360																												-150.17148	957.85352	-1416.79504													-387.85910	895.13306	-1571.95044										-209.15550	66.47701	-1581.04688	
538	5.370																												-151.81398	959.84045	-1415.01099													-386.98520	895.90704	-1580.12427										-209.19987	66.37103	-1581.30640	
539	5.380																												-153.28777	960.16394	-1413.95374													-386.95074	896.59790	-1584.65894										-209.97057	67.48515	-1578.73450	
540	5.390																												-155.02023	957.80957	-1424.41467													-387.89734	896.98041	-1587.40942										-210.07364	67.22855	-1579.33459	
541	5.400																												-157.16721	958.99164	-1427.06494													-388.11047	897.09259	-1597.79785										-210.98300	67.86813	-1575.49829	
542	5.410																												-159.22977	959.49854	-1425.65100													-388.98273	897.64746	-1603.43640										-211.13260	67.43933	-1576.35742	
